<svg width="103" height="80" viewBox="0 0 103 80" fill="none" xmlns="http://www.w3.org/2000/svg">
<g id="OBJECTS">
<path id="Vector" d="M99.7768 66.6073V63.4098L98.2792 61.7098V57.3248L97.2478 55.4797V51.8621L96.1658 48.0906C95.9767 43.965 95.3038 36.9806 92.9463 33.0068H93.0013C93.8567 33.0068 94.5538 32.3096 94.5538 31.4542C94.5538 30.5987 93.8589 29.9016 93.0013 29.9016H92.2514L92.1854 29.7696L92.2514 29.6377H92.5394C93.1332 29.6377 93.6148 29.1539 93.6148 28.5623C93.6148 27.9708 93.131 27.4869 92.5394 27.4869H92.1458V27.4166L92.181 27.2692H92.3349C92.8099 27.2692 93.1992 26.8822 93.1992 26.405C93.1992 25.9278 92.8275 25.5605 92.3657 25.5451L91.8181 23.6033L91.2706 25.5451C90.8087 25.5605 90.4371 25.9388 90.4371 26.405C90.4371 26.8712 90.8241 27.2692 91.3013 27.2692H91.4883V27.3396L91.4531 27.4869H91.0946C90.5009 27.4869 90.0192 27.9708 90.0192 28.5623C90.0192 29.1539 90.5031 29.6377 91.0946 29.6377H91.3827L91.4487 29.7696L91.3827 29.9016H90.6328C89.7773 29.9016 89.0802 30.5987 89.0802 31.4542C89.0802 32.3096 89.7751 33.0068 90.6328 33.0068H90.6878C88.3303 36.9806 87.6574 43.9628 87.4682 48.0906L86.3863 51.8621V55.4797L85.3571 57.3204L85.3175 58.5299H82.9314V59.6206H75.2169V53.9029H74.6781V53.5291H74.9838V53.0145C74.9838 52.5285 74.6473 52.1238 74.1965 52.0117L73.948 51.0968L73.6995 52.0117C73.2487 52.1238 72.9122 52.5285 72.9122 53.0145V53.5291H73.2179V53.9029H72.5164V53.1992H71.971V53.9029H71.3068V53.1992H70.7615V53.9029H70.0973V53.1992H69.5519V53.9029H68.8878V53.1992H68.3424V53.9029H67.6783V53.1992H67.1329V53.9029H66.4688V53.1992H65.9234V53.9029H65.2218V53.5291H65.5275V53.0145C65.5275 52.5285 65.1911 52.1238 64.7402 52.0117L64.4917 51.0968L64.2432 52.0117C63.7924 52.1238 63.4559 52.5285 63.4559 53.0145V53.5291H63.7616V53.9029H63.2228V59.6206H55.5083V58.5299H52.4713V64.2476L38.1505 50.7911L35.5951 53.6786H35.5775V53.6984L31.8412 57.9207H31.8368V57.9273L30.8472 59.0467L18.1208 46.3203L11.121 53.3971H11.1188L9.47826 55.0597C9.59041 31.6719 9.8763 28.2215 9.95327 27.7157L10.0434 27.344H9.76414C9.64759 27.344 9.58381 27.3902 9.54423 27.5287V18.2044H8.8515V16.5946H8.19176V14.3933H7.62879C7.38688 13.5532 6.5754 10.1424 6.5754 2.37286H7.27693V1.64495H6.51603L6.24553 0L5.97504 1.64495H5.21414V2.37286H5.91566C5.91566 10.116 5.10198 13.5488 4.86228 14.3933H4.3015V16.5946H3.64176V18.2044H2.94904V27.5287C2.90945 27.3902 2.84568 27.344 2.72912 27.344H2.44983L2.54 27.7157C2.62796 28.294 2.99082 32.7407 3.0502 66.6601H0V80H99.7768V68.7426H102.488L99.7768 66.6073ZM37.8273 51.4773H37.99L37.957 51.8643H37.4864L37.8273 51.4773ZM37.2907 52.082H37.9372L37.9042 52.4669H36.9498L37.2907 52.082ZM36.7541 52.689H37.8844L37.8514 53.076H36.4132L36.7541 52.689ZM36.2175 53.296H37.8295L37.7965 53.683H35.8766L36.2175 53.296ZM35.6809 53.9007H37.7767L37.7437 54.2878H35.34L35.6809 53.9007ZM35.1465 54.5077H37.7261L37.6931 54.8925H34.8057L35.1465 54.5077ZM34.6099 55.1124H37.6711L37.6381 55.4995H34.2691L34.6099 55.1124ZM34.0733 55.7194H37.6183L37.5854 56.1064H33.7325L34.0733 55.7194ZM33.5368 56.3242H37.5656L37.5326 56.7112H33.1959L33.5368 56.3242ZM33.0002 56.9311H37.5128L37.4798 57.316H32.6593L33.0002 56.9311ZM32.4636 57.5359H37.4578L37.4248 57.9229H32.1227L32.4636 57.5359ZM31.927 58.1428H37.405L37.372 58.5299H31.5861L31.927 58.1428ZM31.3926 58.7498H37.3544L37.3215 59.1368H31.0517L31.3926 58.7498ZM36.7475 62.772L36.3626 62.3872H37.0378L37.0048 62.772H36.7497H36.7475ZM36.9828 62.9919V63.0051L36.9674 62.9919H36.9828ZM36.1405 62.165L36.1053 62.1299L36.0702 62.165H33.9524L33.5653 61.778H37.0883L37.0554 62.165H36.1427H36.1405ZM22.5455 76.6221L23.2536 75.914H29.5057L29.1737 76.6221H22.5455ZM29.0703 76.842L28.7382 77.5502H21.6153L22.3234 76.842H29.0703ZM23.4735 75.6941L24.1816 74.986H29.939L29.6069 75.6941H23.4713H23.4735ZM24.4016 74.7639L25.1097 74.0557H30.3744L30.0423 74.7639H24.4016ZM25.3318 73.8358L26.0399 73.1277H30.8098L30.4778 73.8358H25.3318ZM26.2598 72.9078L26.9679 72.1997H31.2431L30.911 72.9078H26.2576H26.2598ZM27.1901 71.9776L27.8982 71.2694H31.6807L31.3486 71.9776H27.1901ZM28.1181 71.0495L28.8262 70.3414H32.1139L31.7818 71.0495H28.1181ZM29.0483 70.1193L29.7564 69.4112H32.5493L32.2173 70.1193H29.0461H29.0483ZM29.9764 69.1913L30.6845 68.4832H32.9848L32.6527 69.1913H29.9764ZM30.9066 68.261L31.6147 67.5529H33.4202L33.0881 68.261H30.9066ZM31.8346 67.333L32.5427 66.6249H33.8534L33.5214 67.333H31.8324H31.8346ZM32.7649 66.4028L33.473 65.6947H34.2911L33.959 66.4028H32.7649ZM33.6929 65.4747L34.401 64.7666H34.7243L34.3922 65.4747H33.6929ZM34.6231 64.5445L35.0102 64.1575L34.8276 64.5445H34.6209H34.6231ZM34.5572 62.772L34.1723 62.3872H35.8502L35.4654 62.772H34.5593H34.5572ZM35.2433 62.9919L35.0102 63.225L34.7771 62.9919H35.2433ZM33.3454 61.5581L32.9584 61.171H37.1411L37.1081 61.5581H33.3454ZM32.7385 60.9533L32.3514 60.5663H37.1939L37.1609 60.9533H32.7385ZM32.1337 60.3464L31.7489 59.9615H37.2489L37.2159 60.3464H32.1359H32.1337ZM31.5267 59.7416L31.1397 59.3546H37.2995L37.2665 59.7416H31.5267ZM18.1538 46.6788L24.6677 53.1926L22.7016 54.8771L16.2318 52.2558L18.1516 46.6788H18.1538ZM17.846 46.8965L17.5139 47.8597H16.8937L17.846 46.8965ZM16.676 48.0796H17.4391L17.1114 49.0318H15.7348L16.676 48.0796ZM15.5171 49.2517H17.0345L16.7398 50.1094H14.6682L15.5149 49.2517H15.5171ZM14.4527 50.3293H16.665L16.3703 51.187H13.606L14.4527 50.3293ZM13.3861 51.4069H16.2934L16.0185 52.2074L12.6032 52.2008L13.3883 51.4069H13.3861ZM12.3855 52.4185H15.9437L15.8162 52.7858H12.0205L12.3833 52.4185H12.3855ZM11.8049 53.0057H15.7436L15.6094 53.3971H11.4201L11.8071 53.0057H11.8049ZM11.2002 53.617H15.5325L15.3983 54.0085H10.8131L11.2002 53.617ZM10.6724 54.1514V54.2306H15.3213L15.1872 54.622H10.2084L10.6724 54.1514ZM10.0192 54.8112V54.8397H15.1102L14.9761 55.2312H9.60361L10.0192 54.8112ZM9.46286 55.4511H14.9013L14.7672 55.8425H9.46286C9.46286 55.7128 9.46286 55.5786 9.46286 55.4511ZM9.46066 56.0625H14.6902L14.5561 56.4539H9.45846C9.45846 56.322 9.45846 56.1922 9.45846 56.0625H9.46066ZM9.45627 56.6738H14.4791L14.3449 57.0653H9.45627C9.45627 56.9355 9.45627 56.8036 9.45627 56.6738ZM9.45407 57.2874H14.268L14.1338 57.6788H9.45407C9.45407 57.5469 9.45407 57.4171 9.45407 57.2874ZM9.45187 57.8987H14.0568L13.9227 58.2902H9.44967C9.44967 58.1582 9.44967 58.0285 9.44967 57.8987H9.45187ZM9.44967 58.5101H13.8479L13.7138 58.9015H9.44967C9.44967 58.7696 9.44967 58.6398 9.44967 58.5101ZM9.44747 59.1214H13.6368L13.5027 59.5129H9.44747C9.44747 59.3809 9.44747 59.2512 9.44747 59.1214ZM9.44527 59.7328H13.4257L13.2915 60.1243H9.44527C9.44527 59.9945 9.44527 59.8626 9.44527 59.7328ZM9.44307 60.3442H13.2146L13.0804 60.7356H9.44087C9.44087 60.6037 9.44087 60.4761 9.44087 60.3442H9.44307ZM9.44087 60.9555H13.0035L12.8693 61.347H9.43867C9.43867 61.2172 9.43867 61.0853 9.43867 60.9555H9.44087ZM9.44087 61.5669H12.7945L12.6604 61.9583H9.43867C9.43867 61.8264 9.43867 61.6966 9.43867 61.5669H9.44087ZM9.43867 62.1782H12.5856L12.4515 62.5697H9.43867C9.43867 62.4399 9.43867 62.308 9.43867 62.1782ZM9.43647 62.7896H12.3745L12.2404 63.181H9.43647C9.43647 63.0513 9.43647 62.9193 9.43647 62.7896ZM9.43427 63.401H12.1612L12.027 63.7924H9.43207C9.43207 63.6605 9.43207 63.5329 9.43207 63.401H9.43427ZM9.43427 64.0123H11.9523L11.8181 64.4038H9.43207C9.43207 64.274 9.43207 64.1421 9.43207 64.0123H9.43427ZM9.43207 64.6237H11.7412L11.607 65.0151H9.43207C9.43207 64.8832 9.43207 64.7534 9.43207 64.6237ZM9.42988 65.235H11.53L11.3959 65.6265H9.42988C9.42988 65.4967 9.42988 65.3648 9.42988 65.235ZM9.42988 65.8464H11.3211L11.187 66.2378H9.42988C9.42988 66.1081 9.42988 65.9761 9.42988 65.8464ZM9.42768 66.4578H11.11L11.0396 66.6623H9.42768C9.42768 66.5941 9.42768 66.5259 9.42768 66.4578ZM9.32212 30.2359H9.35291C9.33311 30.7527 9.31552 31.3332 9.29793 31.9754L9.09561 31.1529L9.31992 30.2337L9.32212 30.2359ZM9.25614 33.6533C9.25614 33.6687 9.25614 33.6819 9.25614 33.6973C9.24075 34.3768 9.22536 35.1487 9.20996 36.0284L8.8713 37.4094L8.21815 34.7441L8.8713 32.0787L9.25614 33.6533ZM3.59118 39.2589L4.24432 41.9242L3.59118 44.5896L3.35368 43.622C3.34268 42.4498 3.32948 41.3701 3.31629 40.3739L3.58898 39.2567L3.59118 39.2589ZM3.2943 38.6233C3.2921 38.4144 3.2877 38.2099 3.2855 38.0076L3.36467 38.3331L3.2943 38.6211V38.6233ZM6.00363 49.1044L5.35049 51.7698L4.69734 49.1044L5.35049 46.4391L6.00363 49.1044ZM5.577 45.5154L6.23014 42.8501L6.88328 45.5154L6.23014 48.1808L5.577 45.5154ZM6.23014 50.028L6.88328 52.6934L6.23014 55.3587L5.577 52.6934L6.23014 50.028ZM6.45665 49.1044L7.10979 46.4391L7.76293 49.1044L7.10979 51.7698L6.45665 49.1044ZM6.45665 41.9242L7.10979 39.2589L7.76293 41.9242L7.10979 44.5896L6.45665 41.9242ZM6.23014 41.0006L5.577 38.3353L6.23014 35.6699L6.88328 38.3353L6.23014 41.0006ZM6.00363 41.9242L5.35049 44.5896L4.69734 41.9242L5.35049 39.2589L6.00363 41.9242ZM5.12398 45.5154L4.47083 48.1808L3.81769 45.5154L4.47083 42.8501L5.12398 45.5154ZM4.47083 50.028L5.12398 52.6934L4.47083 55.3587L3.81769 52.6934L4.47083 50.028ZM5.12398 59.8736L4.47083 62.5389L3.81769 59.8736L4.47083 57.2082L5.12398 59.8736ZM4.69734 56.2846L5.35049 53.6192L6.00363 56.2846L5.35049 58.9499L4.69734 56.2846ZM6.23014 57.2082L6.88328 59.8736L6.23014 62.5389L5.577 59.8736L6.23014 57.2082ZM6.45665 56.2846L7.10979 53.6192L7.76293 56.2846L7.10979 58.9499L6.45665 56.2846ZM7.98944 57.2082L8.64259 59.8736L7.98944 62.5389L7.3363 59.8736L7.98944 57.2082ZM7.3363 52.6956L7.98944 50.0302L8.64259 52.6956L7.98944 55.3609L7.3363 52.6956ZM7.3363 45.5154L7.98944 42.8501L8.64259 45.5154L7.98944 48.1808L7.3363 45.5154ZM7.3363 38.3353L7.98944 35.6699L8.64259 38.3353L7.98944 41.0006L7.3363 38.3353ZM7.98944 33.8204L7.3363 31.1551L7.98944 28.4897L8.64259 31.1551L7.98944 33.8204ZM7.76293 34.7441L7.10979 37.4094L6.45665 34.7441L7.10979 32.0787L7.76293 34.7441ZM6.23014 33.8204L5.577 31.1551L6.23014 28.4897L6.88328 31.1551L6.23014 33.8204ZM6.00363 34.7441L5.35049 37.4094L4.69734 34.7441L5.35049 32.0787L6.00363 34.7441ZM4.47083 33.8204L3.81769 31.1551L4.47083 28.4897L5.12398 31.1551L4.47083 33.8204ZM5.12398 38.3353L4.47083 41.0006L3.81769 38.3353L4.47083 35.6699L5.12398 38.3353ZM3.59118 46.4391L4.24432 49.1044L3.59118 51.7698L3.41305 51.044C3.40426 49.7092 3.39546 48.4513 3.38666 47.2703L3.59118 46.4369V46.4391ZM3.59118 53.6192L4.24432 56.2846L3.59118 58.9499L3.45044 58.3737C3.44604 56.9377 3.43944 55.5699 3.43284 54.268L3.59118 53.617V53.6192ZM3.59118 60.7972L4.24432 63.4625L3.47243 66.6117C3.46803 64.7622 3.46583 63.0051 3.45923 61.3316L3.59118 60.795V60.7972ZM4.47083 64.3884L5.02721 66.6623H3.91226L4.46864 64.3884H4.47083ZM4.69734 63.4647L5.35049 60.7994L6.00363 63.4647L5.35049 66.1301L4.69734 63.4647ZM6.23014 64.3884L6.78652 66.6623H5.67156L6.22794 64.3884H6.23014ZM6.45665 63.4647L7.10979 60.7994L7.76293 63.4647L7.10979 66.1301L6.45665 63.4647ZM7.98944 64.3884L8.54583 66.6623H7.43087L7.98725 64.3884H7.98944ZM8.21595 63.4647L8.8691 60.7994L9.00105 61.336C8.99665 63.0095 8.99225 64.7688 8.98785 66.6161L8.21595 63.4669V63.4647ZM8.8691 58.9499L8.21595 56.2846L8.8691 53.6192L9.02743 54.2702C9.02084 55.5721 9.01424 56.9377 9.00984 58.3759L8.8691 58.9521V58.9499ZM8.8691 51.7698L8.21595 49.1044L8.8691 46.4391L9.07362 47.2725C9.06482 48.4535 9.05602 49.7092 9.04723 51.0462L8.8691 51.7719V51.7698ZM8.8691 44.5896L8.21595 41.9242L8.8691 39.2589L9.14179 40.3761C9.12859 41.3723 9.1176 42.4498 9.1044 43.6242L8.8669 44.5918L8.8691 44.5896ZM9.09561 38.3353L9.17478 38.0098C9.17258 38.2099 9.16818 38.4144 9.16598 38.6255L9.09561 38.3375V38.3353ZM8.8691 22.165V24.1465H8.15438V22.165H8.8691ZM8.15438 21.4305V20.8456H8.8691V21.4305H8.15438ZM8.8691 24.3664V24.7314H8.15438V24.3664H8.8691ZM8.8691 18.8641V20.6257H8.15438V18.8641H8.8691ZM6.3401 11.0726C6.54901 12.8033 6.78432 13.8589 6.92726 14.3955H6.3401V11.0726ZM6.12018 11.0726V14.3955H5.53301C5.67596 13.8589 5.91127 12.8033 6.12018 11.0726ZM4.94585 15.0531H7.51883V15.2356H4.94585V15.0531ZM4.94585 15.4577H7.51883V16.5946H4.94585V15.4577ZM4.28391 17.2544H8.17637V17.4369H4.28391V17.2544ZM4.28391 17.6568H8.17637V18.2044H4.28391V17.6568ZM6.3401 24.1465V22.165H7.93447V24.1465H6.3401ZM7.93447 24.3664V24.7314H6.3401V24.3664H7.93447ZM6.3401 21.4305V20.8456H7.93447V21.4305H6.3401ZM6.3401 20.6257V18.8641H7.93447V20.6257H6.3401ZM4.52581 24.1465V22.165H6.12018V24.1465H4.52581ZM6.12018 24.3664V24.7314H4.52581V24.3664H6.12018ZM4.52581 21.4305V20.8456H6.12018V21.4305H4.52581ZM4.52581 20.6257V18.8641H6.12018V20.6257H4.52581ZM3.59118 18.8641H4.3059V20.6257H3.59118V18.8641ZM3.59118 20.8456H4.3059V21.4305H3.59118V20.8456ZM3.59118 22.165H4.3059V24.1465H3.59118V22.165ZM3.59118 24.3664H4.3059V24.7314H3.59118V24.3664ZM3.59118 25.3912H8.8691V30.2315L7.98944 26.6425L7.10979 30.2315L6.23014 26.6425L5.35049 30.2315L4.47083 26.6425L3.59118 30.2315V25.3912ZM4.24432 34.7441L3.59118 37.4094L3.25252 36.0284C3.23712 35.1487 3.22173 34.3768 3.20633 33.6973C3.20633 33.6819 3.20633 33.6687 3.20633 33.6533L3.59118 32.0787L4.24432 34.7441ZM3.14036 30.2359L3.36467 31.1551L3.16235 31.9776C3.14476 31.3354 3.12716 30.7527 3.10737 30.2381H3.13816L3.14036 30.2359ZM3.06999 79.3425H2.59278V69.807H3.06999V79.3425ZM8.73275 79.3425H3.72973V69.807H8.73275V79.3425ZM9.8697 79.3425H9.39249V69.807H9.8697V79.3425ZM11.8027 79.3425H10.5316V69.1473H1.93084V79.3425H0.659739V67.322H11.8027V79.3425ZM11.2727 66.6623L16.1614 52.4647L22.6818 55.108L22.7434 55.1344L24.8238 53.3509L34.854 63.3812L20.7906 77.4446L17.4897 74.1437L12.4603 79.1731V66.6645H11.2705L11.2727 66.6623ZM15.9437 76.6221L16.3967 76.1691L16.1856 76.6221H15.9459H15.9437ZM16.08 76.842L15.8909 77.2445H15.3191L15.7216 76.842H16.08ZM14.9101 79.3425H13.2234L13.5642 79.0016H15.0706L14.9123 79.3425H14.9101ZM15.174 78.7817H13.7864L14.3449 78.2231H15.4357L15.174 78.7817ZM14.5626 78.0032L15.1014 77.4644H15.7898L15.5369 78.0032H14.5626ZM18.8927 79.3425H15.638L17.5887 75.1751L20.3244 77.9108L18.8927 79.3425ZM27.9004 79.3425H19.8252L20.4651 78.7025H28.1995L27.9004 79.3425ZM20.6872 78.4804L21.3953 77.7723H28.6349L28.3028 78.4804H20.685H20.6872ZM28.6283 79.3425L36.2043 63.1613L52.3833 79.3425H28.6283ZM52.4603 78.4848L37.1851 63.2096L38.2385 51.187L52.4625 64.5511V78.4848H52.4603ZM75.2147 60.2804H82.9292V63.2052H75.2147V60.2804ZM83.2877 63.865C83.3339 64.1861 83.4702 64.6809 83.8595 65.1141H73.2091C73.5983 64.6809 73.7347 64.1882 73.7809 63.865H83.2877ZM81.7461 69.807C81.7923 70.1281 81.9286 70.6229 82.3157 71.0561H74.7507C75.1399 70.6229 75.2741 70.1303 75.3203 69.807H81.7461ZM76.9938 69.1473V66.7678H80.0726V69.1473H76.9938ZM80.0726 66.5479H76.9938V65.7738H80.0726V66.5479ZM73.9436 52.6384C74.0997 52.6384 74.2339 52.7352 74.2911 52.8693H73.5939C73.6511 52.733 73.7853 52.6384 73.9414 52.6384H73.9436ZM74.0162 53.5313V53.9051H73.871V53.5313H74.0162ZM64.4829 52.6384C64.6391 52.6384 64.7754 52.7352 64.8304 52.8693H64.1333C64.1904 52.733 64.3246 52.6384 64.4807 52.6384H64.4829ZM64.5533 53.5313V53.9051H64.4082V53.5313H64.5533ZM63.8716 54.5626H74.5549V58.1538H74.1261V55.4555H73.0991V58.1538H72.3008V55.4555H70.3678V58.1538H70.1765V55.4555H68.2434V58.1538H68.0521V55.4555H66.1191V58.1538H65.3208V55.4555H64.2938V58.1538H63.865V54.5626H63.8716ZM73.9084 55.6754V58.1538H73.3212V55.6754H73.9084ZM72.0831 55.6754V58.0945H70.5899V55.6754H72.0831ZM69.9588 55.6754V58.0945H68.4656V55.6754H69.9588ZM67.8366 55.6754V58.0945H66.3434V55.6754H67.8366ZM65.1053 55.6754V58.1538H64.5181V55.6754H65.1053ZM63.8716 58.8136H74.5549V63.2052H73.5412V60.1155H64.8854V63.2052H63.8716V58.8136ZM69.9764 64.6215V64.4016C69.9764 63.9815 69.6333 63.6385 69.2133 63.6385C68.7932 63.6385 68.4502 63.9815 68.4502 64.4016V64.6215H68.0851V66.6447C68.0191 66.6689 67.9554 66.6953 67.8916 66.7238V60.7752H70.5327V66.7238C70.469 66.6953 70.4052 66.6689 70.3392 66.6447V64.6215H69.9742H69.9764ZM69.6817 65.2812V66.4753C69.5277 66.4534 69.3738 66.438 69.2133 66.438C69.0527 66.438 68.8988 66.4534 68.7449 66.4753V65.2812H69.6795H69.6817ZM69.1099 64.6215V64.4016C69.1099 64.3444 69.1561 64.2982 69.2133 64.2982C69.2704 64.2982 69.3166 64.3444 69.3166 64.4016V64.6215H69.1099ZM55.4951 60.2804H63.2096V63.2052H55.4951V60.2804ZM64.6457 63.865C64.6918 64.1861 64.8282 64.6809 65.2174 65.1141H54.567C54.9563 64.6809 55.0926 64.1882 55.1388 63.865H64.6457ZM63.1063 69.807C63.1525 70.1281 63.2888 70.6229 63.6758 71.0561H56.1108C56.5001 70.6229 56.6342 70.1303 56.6804 69.807H63.1063ZM58.354 69.1473V66.7678H61.4327V69.1473H58.354ZM61.4327 66.5479H58.354V65.7738H61.4327V66.5479ZM54.9651 71.0649L54.7078 71.1771L54.8199 71.7159H55.0553V79.3425H53.3157L53.1178 79.1445V59.1918H54.8353V63.2052H54.4901L54.5011 63.5483C54.5011 63.5901 54.5253 64.5841 53.5444 65.0679C53.3883 65.1449 53.3069 65.3164 53.3465 65.4857C53.3861 65.6551 53.5357 65.7738 53.7094 65.7738H57.692V69.1473H56.0251L56.0405 69.4926C56.0405 69.5035 56.0779 70.6009 54.9629 71.0649H54.9651ZM56.4671 79.3425H55.715V71.7159H56.4671V79.3425ZM57.9141 79.3425H57.129V75.6391H57.9141V79.3425ZM57.9141 75.4192H57.129V71.7159H57.9141V75.4192ZM59.7834 79.3425H58.134V75.6391H59.7834V79.3425ZM59.7834 75.4192H58.134V71.7159H59.7834V75.4192ZM61.6526 79.3425H60.0033V75.6391H61.6526V79.3425ZM61.6526 75.4192H60.0033V71.7159H61.6526V75.4192ZM62.6577 79.3425H61.8726V75.6391H62.6577V79.3425ZM62.6577 75.4192H61.8726V71.7159H62.6577V75.4192ZM64.0695 79.3425H63.3174V71.7159H64.0695V79.3425ZM65.9849 79.3425H64.727V71.7137L64.9689 71.7093L65.0679 71.1683L64.8172 71.0649C63.7132 70.6053 63.7374 69.5343 63.7374 69.4926L63.7528 69.1473H62.0859V65.7738H66.0685C66.2422 65.7738 66.3918 65.6551 66.4314 65.4857C66.4709 65.3164 66.3896 65.1449 66.2334 65.0679C65.8992 64.903 65.6815 64.6765 65.5407 64.4499V60.7752H67.6673V66.8294C66.6623 67.377 65.9805 68.4436 65.9805 69.6641V79.3403L65.9849 79.3425ZM67.5683 79.3425H66.6447V75.6391H67.5683V79.3425ZM67.5683 75.4192H66.6447V71.7159H67.5683V75.4192ZM69.1033 79.3425H67.7882V75.6391H69.1033V79.3425ZM69.1033 75.4192H67.7882V71.7159H69.1033V75.4192ZM70.6383 79.3425H69.3232V75.6391H70.6383V79.3425ZM70.6383 75.4192H69.3232V71.7159H70.6383V75.4192ZM71.7796 79.3425H70.856V75.6391H71.7796V79.3425ZM71.7796 75.4192H70.856V71.7159H71.7796V75.4192ZM71.7796 71.0539H66.6447V69.6641C66.6447 68.2478 67.797 67.0977 69.2111 67.0977C70.6251 67.0977 71.7775 68.25 71.7775 69.6641V71.0539H71.7796ZM73.6049 71.0649L73.3498 71.1771L73.462 71.7159H73.6973V79.3425H72.4394V69.6663C72.4394 68.4436 71.7555 67.3792 70.7527 66.8316V60.7774H72.8792V64.4521C72.7385 64.6786 72.5208 64.9052 72.1865 65.0701C72.0303 65.1471 71.949 65.3186 71.9886 65.4879C72.0282 65.6573 72.1777 65.776 72.3514 65.776H76.334V69.1495H74.6671L74.6825 69.4948C74.6825 69.5058 74.7199 70.6031 73.6027 71.0693L73.6049 71.0649ZM75.1091 79.3425H74.357V71.7159H75.1091V79.3425ZM76.554 79.3425H75.7689V75.6391H76.554V79.3425ZM76.554 75.4192H75.7689V71.7159H76.554V75.4192ZM78.4232 79.3425H76.7739V75.6391H78.4232V79.3425ZM78.4232 75.4192H76.7739V71.7159H78.4232V75.4192ZM80.2925 79.3425H78.6431V75.6391H80.2925V79.3425ZM80.2925 75.4192H78.6431V71.7159H80.2925V75.4192ZM81.2997 79.3425H80.5146V75.6391H81.2997V79.3425ZM81.2997 75.4192H80.5146V71.7159H81.2997V75.4192ZM82.7093 79.3425H81.9572V71.7159H82.7093V79.3425ZM85.3065 68.2017C85.2669 68.2786 85.2515 68.3666 85.2735 68.4568C85.2801 68.4854 85.2933 68.5117 85.3065 68.5381V79.3425H83.3691V71.7137L83.611 71.7093L83.7121 71.1705L83.4614 71.0671C82.3575 70.6075 82.3817 69.5365 82.3817 69.4926L82.3971 69.1473H80.7301V65.7738H84.7127C84.8865 65.7738 85.036 65.6551 85.0756 65.4857C85.1152 65.3164 85.0338 65.1449 84.8777 65.0679C83.8991 64.5841 83.9189 63.5901 83.9211 63.5505L83.9364 63.2052H83.5868V59.1918H85.3043V68.2017H85.3065ZM95.4863 47.8751L95.4225 47.8927L95.4995 48.161C95.5633 49.52 95.5764 50.5624 95.5764 51.0616H94.688C94.6286 49.2737 94.2834 40.53 93.1816 34.9838C94.7628 38.8169 95.3016 44.3213 95.4841 47.8773L95.4863 47.8751ZM94.4703 51.0594H94.2328C94.092 50.8791 93.9535 50.6658 93.8215 50.4305C93.8127 48.0862 93.6984 38.3726 92.3591 33.3102C92.4977 33.5412 92.6296 33.7831 92.755 34.036C94.0217 39.4304 94.4043 49.1462 94.4703 51.0594ZM89.3595 62.5829H88.691C89.0802 62.1497 89.2144 61.657 89.2627 61.3338H94.3691C94.4153 61.6548 94.5517 62.1474 94.9409 62.5829H89.3595ZM93.6126 63.2426V66.1763H93.1728V63.2426H93.6126ZM92.9529 63.2426V66.1763H90.679V63.2426H92.9529ZM90.4613 63.2426V66.1763H90.0214V63.2426H90.4613ZM90.1292 60.674V57.7404H90.569V60.674H90.1292ZM90.7911 60.674V57.7404H92.8451V60.674H90.7911ZM93.5027 60.674H93.0628V57.7404H93.5027V60.674ZM89.4695 57.0807H89.2408C89.63 56.6474 89.7641 56.1548 89.8125 55.8316H93.8193C93.8655 56.1526 94.0019 56.6474 94.3911 57.0807H89.4695ZM90.569 55.174V52.2404H91.0089V55.174H90.569ZM91.231 55.174V52.2404H92.4031V55.174H91.231ZM93.0628 55.174H92.623V52.2404H93.0628V55.174ZM89.9093 51.5806H89.8213C90.6504 50.6042 91.2859 48.8097 91.5081 48.1324H92.1238C92.3437 48.8097 92.9815 50.6064 93.8105 51.5806H89.9115H89.9093ZM90.0368 50.0126C90.0588 47.0306 90.2348 37.6777 91.5872 33.009H92.0468C93.3993 37.6777 93.5752 47.0306 93.5972 50.0126C93.1772 49.1682 92.8341 48.205 92.6824 47.7058L92.612 47.4726H91.0242L90.9539 47.7058C90.8021 48.2072 90.4591 49.1704 90.039 50.0126H90.0368ZM91.2991 26.6117C91.187 26.6117 91.0946 26.5193 91.0946 26.4072C91.0946 26.295 91.187 26.2027 91.2991 26.2027H92.3349C92.4471 26.2027 92.5394 26.295 92.5394 26.4072C92.5394 26.5193 92.4493 26.6117 92.3349 26.6117H91.2991ZM91.0924 28.9802C90.8637 28.9802 90.6768 28.7932 90.6768 28.5645C90.6768 28.3358 90.8637 28.1489 91.0924 28.1489H92.5394C92.7682 28.1489 92.9551 28.3358 92.9551 28.5645C92.9551 28.7932 92.7682 28.9802 92.5394 28.9802H91.0924ZM90.6328 32.3492C90.1402 32.3492 89.74 31.949 89.74 31.4564C89.74 30.9638 90.1402 30.5635 90.6328 30.5635H93.0035C93.4961 30.5635 93.8963 30.9638 93.8963 31.4564C93.8963 31.949 93.4961 32.3492 93.0035 32.3492H90.6328ZM90.8791 34.036C91.0067 33.7831 91.1386 33.5412 91.2749 33.3124C89.9379 38.3748 89.8213 48.0884 89.8147 50.4327C89.6828 50.668 89.5442 50.8813 89.4035 51.0616H89.166C89.2298 49.1484 89.6146 39.4326 90.8813 34.0382L90.8791 34.036ZM88.1346 48.161L88.2116 47.8927L88.1478 47.8751C88.3303 44.3191 88.8691 38.8169 90.4503 34.9816C89.3485 40.53 89.0054 49.2715 88.9439 51.0594H88.0554C88.0554 50.5602 88.0686 49.5178 88.1324 48.1588L88.1346 48.161ZM85.9662 58.8642L86.0102 57.5007L87.0438 55.6512V51.9567L87.3957 50.7318C87.3957 51.099 87.3957 51.3321 87.3957 51.3959L87.4001 51.7214H88.7042C88.6734 51.7917 88.6624 51.8731 88.6822 51.9545C88.7218 52.1238 88.8713 52.2426 89.045 52.2426H89.9093V55.1762H89.1616L89.177 55.5215C89.177 55.5215 89.2122 56.5507 88.2204 57.0389C88.0642 57.1158 87.985 57.2874 88.0246 57.4567C88.0642 57.626 88.2138 57.7448 88.3875 57.7448H89.4717V60.6784H88.6184L88.6294 61.0215C88.6294 61.0633 88.6536 62.0573 87.6728 62.5411C87.5166 62.6181 87.4353 62.7896 87.4748 62.9589C87.5144 63.1283 87.664 63.247 87.8377 63.247H89.3617V66.1807H86.4171L86.4281 66.5237C86.4281 66.5567 86.4413 67.1791 85.9684 67.6783V58.8685L85.9662 58.8642ZM86.8019 79.3425H85.9662V68.7449H86.8019V79.3425ZM88.2489 79.3425H87.4617V68.7449H88.2489V79.3425ZM94.7232 79.3425H88.9087V75.0432L94.7232 77.007V79.3447V79.3425ZM94.7232 76.3077L88.9087 74.3438V72.8396L94.7232 74.8035V76.3077ZM94.7232 74.1085L88.9087 72.1447V68.7449H94.7232V74.1085ZM96.1724 79.3425H95.3851V68.7449H96.1724V79.3425ZM94.7232 68.0851H86.4918C86.8811 67.6519 87.0174 67.1593 87.0636 66.836H96.5705C96.6166 67.1571 96.753 67.6519 97.1422 68.0851H94.7232ZM99.1171 68.0851V79.3425H96.83V68.7449H97.9955C98.1692 68.7449 98.3188 68.6261 98.3584 68.4568C98.3979 68.2874 98.3166 68.1159 98.1604 68.0389C97.1818 67.5551 97.2038 66.5611 97.2038 66.5215L97.2192 66.1763H94.2702V63.2426H95.7942C95.9679 63.2426 96.1174 63.1239 96.157 62.9545C96.1966 62.7852 96.1152 62.6137 95.9591 62.5367C94.9805 62.0529 95.0025 61.0589 95.0025 61.0193L95.0179 60.674H94.1602V57.7404H95.2444C95.4181 57.7404 95.5676 57.6216 95.6072 57.4523C95.6468 57.283 95.5655 57.1114 95.4093 57.0345C94.4307 56.5507 94.4527 55.5567 94.4527 55.5171L94.4681 55.1718H93.7204V52.2382H94.5846C94.7584 52.2382 94.9079 52.1194 94.9475 51.9501C94.9673 51.8687 94.9563 51.7895 94.9255 51.717H96.2296L96.234 51.3915C96.234 51.3277 96.2362 51.0946 96.234 50.7274L96.5859 51.9523V55.6468L97.6172 57.4919V61.9539L99.1149 63.6539V66.9218L100.582 68.0785H99.1149L99.1171 68.0851Z" fill="white"/>
</g>
</svg>
