<svg width="96" height="96" viewBox="0 0 96 96" fill="none" xmlns="http://www.w3.org/2000/svg">
<g id="marker-time 1">
<path id="Vector" d="M79.104 12.832C70.8 4.56 59.748 0 48 0C36.252 0 25.196 4.556 16.892 12.832C8.58 21.108 4 32.116 4 43.82C4 55.524 8.58 66.532 16.944 74.864L33.548 90.136C37.432 93.916 42.564 96 47.996 96C53.428 96 58.56 93.916 62.404 90.172L79.104 74.804C87.416 66.528 91.996 55.52 91.996 43.816C91.996 32.112 87.416 21.108 79.104 12.832ZM76.34 71.916L59.656 87.268C53.392 93.372 42.644 93.412 36.3 87.228L19.712 71.972C12.16 64.452 8 54.456 8 43.82C8 33.184 12.16 23.188 19.712 15.668C27.268 8.144 37.312 4 48 4C58.688 4 68.732 8.144 76.284 15.668C83.836 23.188 87.996 33.184 87.996 43.82C87.996 54.456 83.836 64.452 76.34 71.916ZM48 16C32.564 16 20 28.56 20 44C20 59.44 32.564 72 48 72C63.436 72 76 59.44 76 44C76 28.56 63.436 16 48 16ZM48 68C34.764 68 24 57.236 24 44C24 30.764 34.764 20 48 20C61.236 20 72 30.764 72 44C72 57.236 61.236 68 48 68ZM55.432 48.608C56.2 49.4 56.184 50.668 55.392 51.436C55 51.812 54.5 52 53.996 52C53.472 52 52.952 51.796 52.564 51.392L46.564 45.212C46.2 44.84 45.996 44.34 45.996 43.82V34C45.996 32.896 46.892 32 47.996 32C49.1 32 49.996 32.896 49.996 34V43.008L55.432 48.608Z" fill="#0DBAA9"/>
</g>
</svg>
