<svg width="16" height="16" viewBox="0 0 16 16" fill="none" xmlns="http://www.w3.org/2000/svg">
<g id="trumph-arch-france-national-culture-paris 1" clip-path="url(#clip0_25_321)">
<path id="Vector" d="M2 1V1.5" stroke="#b2b2b2" stroke-width="0.5" stroke-linecap="round" stroke-linejoin="round"/>
<path id="Vector_2" d="M2 2.5V3" stroke="#b2b2b2" stroke-width="0.5" stroke-linecap="round" stroke-linejoin="round"/>
<path id="Vector_3" d="M1 2H1.5" stroke="#b2b2b2" stroke-width="0.5" stroke-linecap="round" stroke-linejoin="round"/>
<path id="Vector_4" d="M2.5 2H3" stroke="#b2b2b2" stroke-width="0.5" stroke-linecap="round" stroke-linejoin="round"/>
<path id="Vector_5" d="M1.16273 4.275C1.16273 4.32786 1.14706 4.37953 1.1177 4.42348C1.08833 4.46743 1.04659 4.50168 0.997757 4.52191C0.948924 4.54214 0.895189 4.54743 0.843347 4.53712C0.791506 4.5268 0.743886 4.50135 0.706511 4.46398C0.669135 4.4266 0.643682 4.37898 0.63337 4.32714C0.623058 4.2753 0.628351 4.22156 0.648578 4.17273C0.668806 4.1239 0.70306 4.08216 0.747009 4.05279C0.790958 4.02343 0.842628 4.00775 0.895485 4.00775C0.966364 4.00775 1.03434 4.03591 1.08446 4.08603C1.13458 4.13615 1.16273 4.20412 1.16273 4.275Z" fill="#b2b2b2"/>
<g id="Group">
<path id="Vector_6" d="M14.4835 4.25H3.23349C3.10088 4.25 2.9737 4.19732 2.87994 4.10355C2.78617 4.00979 2.73349 3.88261 2.73349 3.75C2.73349 3.61739 2.78617 3.49021 2.87994 3.39645C2.9737 3.30268 3.10088 3.25 3.23349 3.25H14.4835C14.6161 3.25 14.7433 3.30268 14.837 3.39645C14.9308 3.49021 14.9835 3.61739 14.9835 3.75C14.9835 3.88261 14.9308 4.00979 14.837 4.10355C14.7433 4.19732 14.6161 4.25 14.4835 4.25Z" stroke="#b2b2b2" stroke-width="0.5" stroke-linecap="round" stroke-linejoin="round"/>
<path id="Vector_7" d="M14.5 6.5H3.25C3.11739 6.5 2.99021 6.44732 2.89645 6.35355C2.80268 6.25979 2.75 6.13261 2.75 6C2.75 5.86739 2.80268 5.74021 2.89645 5.64645C2.99021 5.55268 3.11739 5.5 3.25 5.5H14.5C14.6326 5.5 14.7598 5.55268 14.8536 5.64645C14.9473 5.74021 15 5.86739 15 6C15 6.13261 14.9473 6.25979 14.8536 6.35355C14.7598 6.44732 14.6326 6.5 14.5 6.5Z" stroke="#b2b2b2" stroke-width="0.5" stroke-linecap="round" stroke-linejoin="round"/>
<path id="Vector_8" d="M3.48349 6.5V15.5H6.48349V10.675C6.48349 10.3631 6.54492 10.0543 6.66428 9.76613C6.78363 9.47798 6.95857 9.21616 7.17911 8.99562C7.39965 8.77508 7.66147 8.60014 7.94962 8.48079C8.23777 8.36143 8.5466 8.3 8.85849 8.3C9.17038 8.3 9.47921 8.36143 9.76736 8.48079C10.0555 8.60014 10.3173 8.77508 10.5379 8.99562C10.7584 9.21616 10.9333 9.47798 11.0527 9.76613C11.1721 10.0543 11.2335 10.3631 11.2335 10.675V15.5H14.2335V6.5H3.48349Z" stroke="#b2b2b2" stroke-width="0.5" stroke-linecap="round" stroke-linejoin="round"/>
<path id="Vector_9" d="M12 8.25H13.25" stroke="#b2b2b2" stroke-width="0.5" stroke-linecap="round" stroke-linejoin="round"/>
<path id="Vector_10" d="M4.5 8.25H5.75" stroke="#b2b2b2" stroke-width="0.5" stroke-linecap="round" stroke-linejoin="round"/>
<path id="Vector_11" d="M3.48349 10.5098H6.48349" stroke="#b2b2b2" stroke-width="0.5" stroke-linecap="round" stroke-linejoin="round"/>
<path id="Vector_12" d="M11.25 10.5H14" stroke="#b2b2b2" stroke-width="0.5" stroke-linecap="round" stroke-linejoin="round"/>
<path id="Vector_13" d="M11.2335 13.7795H14.2335" stroke="#b2b2b2" stroke-width="0.5" stroke-linecap="round" stroke-linejoin="round"/>
<path id="Vector_14" d="M3.5 13.75H6.5" stroke="#b2b2b2" stroke-width="0.5" stroke-linecap="round" stroke-linejoin="round"/>
<path id="Vector_15" d="M12.7335 10.611V15.361" stroke="#b2b2b2" stroke-width="0.5" stroke-linecap="round" stroke-linejoin="round"/>
<path id="Vector_16" d="M4.98349 10.611V15.361" stroke="#b2b2b2" stroke-width="0.5" stroke-linecap="round" stroke-linejoin="round"/>
<path id="Vector_17" d="M3.5 5.5V4.25" stroke="#b2b2b2" stroke-width="0.5" stroke-linejoin="round"/>
<path id="Vector_18" d="M14.25 5.5V4.25" stroke="#b2b2b2" stroke-width="0.5" stroke-linejoin="round"/>
</g>
</g>
<defs>
<clipPath id="clip0_25_321">
<rect width="16" height="16" fill="#b2b2b2"/>
</clipPath>
</defs>
</svg>
