<svg width="16" height="16" viewBox="0 0 16 16" fill="none" xmlns="http://www.w3.org/2000/svg">
<g id="tree 1" clip-path="url(#clip0_19_229)">
<path id="Vector" d="M15.8224 8.43626C15.6977 8.76368 15.5093 9.0631 15.2681 9.31716C15.0268 9.57122 14.7376 9.77487 14.417 9.91631L1.61663 15.9372C1.45661 16.0125 1.27323 16.0212 1.10681 15.9613C0.940402 15.9014 0.804596 15.7778 0.729272 15.6178C0.653949 15.4578 0.645277 15.2744 0.705166 15.108C0.765054 14.9416 0.888597 14.8058 1.04862 14.7305L9.39154 10.8063L8.54218 9.02695L6.79546 9.82097C6.32921 10.0321 5.79975 10.0565 5.31607 9.88909C4.83239 9.72166 4.4313 9.37517 4.19538 8.92095L3.27869 6.66687C3.05194 6.19854 3.01899 5.6597 3.187 5.16723C3.355 4.67477 3.7104 4.2684 4.1761 4.0363C4.6418 3.8042 5.18023 3.76507 5.67459 3.92742C6.16895 4.08976 6.57937 4.44048 6.8168 4.90349L7.57082 6.58221C7.63832 6.74265 7.6404 6.92314 7.5766 7.0851C7.5128 7.24706 7.38819 7.37764 7.22939 7.44894C7.07059 7.52024 6.89021 7.52661 6.72678 7.46668C6.56335 7.40675 6.42984 7.28528 6.35478 7.12822L5.61676 5.48284C5.53569 5.34611 5.40588 5.24512 5.25341 5.20016C5.1723 5.17452 5.08688 5.16532 5.00217 5.1731C4.91745 5.18089 4.83515 5.2055 4.76006 5.2455C4.60989 5.32519 4.49719 5.46088 4.4464 5.62312C4.3956 5.78536 4.41081 5.96109 4.48872 6.11219L5.40008 8.36426C5.48663 8.50033 5.6199 8.6001 5.77485 8.64479C5.92979 8.68948 6.09573 8.67602 6.24144 8.60694L7.9875 7.81291C8.30581 7.66989 8.66737 7.65675 8.99522 7.77629C9.32307 7.89582 9.59133 8.1386 9.74289 8.45293L10.5962 10.239L13.8597 8.7056C14.0215 8.63567 14.1679 8.53434 14.2903 8.40746C14.4128 8.28058 14.5088 8.13068 14.5729 7.96644C14.637 7.8022 14.6679 7.62687 14.6638 7.4506C14.6597 7.27434 14.6207 7.10064 14.549 6.93955C14.5105 6.8592 14.4884 6.77193 14.4842 6.68291C14.48 6.5939 14.4936 6.50493 14.5243 6.42128C14.5551 6.33762 14.6023 6.26098 14.6631 6.19588C14.724 6.13078 14.7973 6.07854 14.8787 6.04226C14.9601 6.00597 15.0479 5.98637 15.137 5.98462C15.2261 5.98287 15.3147 5.999 15.3974 6.03206C15.4802 6.06512 15.5555 6.11444 15.6189 6.1771C15.6822 6.23976 15.7324 6.31449 15.7664 6.39687C15.9101 6.71622 15.989 7.0609 15.9986 7.41096C16.0082 7.76101 15.9483 8.1095 15.8224 8.43626ZM1.82531 10.095C2.3509 11.1101 3.23079 11.897 4.29805 12.3064C4.38007 12.3395 4.46788 12.3561 4.55634 12.3549C4.64481 12.3538 4.73217 12.3351 4.81333 12.2999C4.8945 12.2647 4.96784 12.2137 5.02908 12.1498C5.09033 12.086 5.13825 12.0106 5.17006 11.928C5.20187 11.8455 5.21693 11.7574 5.21437 11.669C5.2118 11.5805 5.19165 11.4935 5.15511 11.4129C5.11856 11.3323 5.06634 11.2598 5.00149 11.1997C4.93665 11.1395 4.86047 11.0928 4.7774 11.0623C4.02264 10.7743 3.39847 10.2214 3.02134 9.50696L1.28262 5.3335C1.21481 5.17012 1.08488 5.04037 0.921406 4.97279C0.757932 4.90522 0.574308 4.90535 0.410929 4.97316C0.247551 5.04096 0.117801 5.1709 0.0502233 5.33437C-0.0173544 5.49785 -0.0172244 5.68147 0.0505847 5.84485L1.82531 10.095ZM9.33354 6.66687C9.51036 6.66687 9.67993 6.59663 9.80496 6.47161C9.92999 6.34658 10.0002 6.177 10.0002 6.00019V0.666687C10.0002 0.489871 9.92999 0.320296 9.80496 0.195268C9.67993 0.0702401 9.51036 0 9.33354 0C9.15672 0 8.98715 0.0702401 8.86212 0.195268C8.73709 0.320296 8.66685 0.489871 8.66685 0.666687V6.00019C8.66685 6.177 8.73709 6.34658 8.86212 6.47161C8.98715 6.59663 9.15672 6.66687 9.33354 6.66687ZM3.6667 3.33344C4.10874 3.33344 4.53267 3.15784 4.84524 2.84527C5.15781 2.5327 5.33342 2.10876 5.33342 1.66672C5.33342 1.22468 5.15781 0.800741 4.84524 0.488171C4.53267 0.1756 4.10874 0 3.6667 0C3.22466 0 2.80072 0.1756 2.48815 0.488171C2.17558 0.800741 1.99998 1.22468 1.99998 1.66672C1.99998 2.10876 2.17558 2.5327 2.48815 2.84527C2.80072 3.15784 3.22466 3.33344 3.6667 3.33344Z" fill="#A9A9A9"/>
</g>
<defs>
<clipPath id="clip0_19_229">
<rect width="16" height="16" fill="white"/>
</clipPath>
</defs>
</svg>
