<svg width="16" height="16" viewBox="0 0 16 16" fill="none" xmlns="http://www.w3.org/2000/svg">
<g id="tree 1">
<path id="Vector" d="M13.6447 11.5333C13.6307 11.5133 12.6067 10.3233 12.6067 10.3233C12.9787 10.0492 13.2296 9.64117 13.3062 9.18544C13.3829 8.72972 13.2793 8.26205 13.0173 7.88133C13.0007 7.85733 11.7607 6.48733 11.7607 6.48733C12.0709 6.33091 12.3238 6.08057 12.4833 5.772C12.6206 5.50768 12.6823 5.21061 12.6616 4.91349C12.6409 4.61637 12.5386 4.33073 12.366 4.088C12.352 4.06666 9.25734 0.563996 9.25734 0.563996C9.09501 0.394124 8.89993 0.258917 8.68388 0.166543C8.46784 0.0741681 8.23531 0.0265427 8.00034 0.0265427C7.76538 0.0265427 7.53285 0.0741681 7.3168 0.166543C7.10076 0.258917 6.90568 0.394124 6.74334 0.563996C6.74334 0.563996 3.64801 4.06666 3.63401 4.08666C3.46142 4.32939 3.35914 4.61504 3.33844 4.91216C3.31774 5.20927 3.37941 5.50634 3.51668 5.77066C3.67625 6.07924 3.92916 6.32957 4.23934 6.486C4.23934 6.486 3.00001 7.856 2.98268 7.88C2.72074 8.26072 2.61714 8.72838 2.69378 9.18411C2.77041 9.63984 3.02129 10.0479 3.39334 10.322C3.39334 10.322 2.36934 11.512 2.35534 11.5333C2.14897 11.8334 2.02845 12.1841 2.00678 12.5476C1.98511 12.9112 2.06311 13.2737 2.23236 13.5962C2.40162 13.9186 2.65571 14.1888 2.96722 14.3774C3.27872 14.5661 3.63583 14.6661 4.00001 14.6667H7.33334V15.3333C7.33334 15.5101 7.40358 15.6797 7.5286 15.8047C7.65363 15.9298 7.8232 16 8.00001 16C8.17682 16 8.34639 15.9298 8.47141 15.8047C8.59644 15.6797 8.66668 15.5101 8.66668 15.3333V14.6667H12C12.3644 14.6666 12.7219 14.5669 13.0338 14.3784C13.3456 14.19 13.6001 13.9199 13.7697 13.5974C13.9393 13.2748 14.0175 12.9121 13.9959 12.5483C13.9744 12.1845 13.8538 11.8336 13.6473 11.5333H13.6447ZM12.588 12.978C12.5324 13.0857 12.448 13.176 12.3442 13.2387C12.2404 13.3014 12.1213 13.3342 12 13.3333H4.00001C3.88099 13.3335 3.76411 13.3018 3.66148 13.2415C3.55886 13.1813 3.47424 13.0946 3.41641 12.9906C3.35858 12.8866 3.32965 12.769 3.33263 12.65C3.33561 12.531 3.37038 12.415 3.43334 12.314L4.85668 10.6667H8.66668C8.84349 10.6667 9.01306 10.5964 9.13808 10.4714C9.2631 10.3464 9.33334 10.1768 9.33334 10C9.33334 9.82319 9.2631 9.65362 9.13808 9.52859C9.01306 9.40357 8.84349 9.33333 8.66668 9.33333H4.44668C4.36865 9.33334 4.29199 9.31281 4.22441 9.27382C4.15682 9.23483 4.10069 9.17874 4.06164 9.11118C4.0226 9.04363 4.00201 8.96699 4.00196 8.88896C4.00191 8.81094 4.02239 8.73427 4.06134 8.66666L5.87601 6.66666H8.00001C8.17682 6.66666 8.34639 6.59643 8.47141 6.4714C8.59644 6.34638 8.66668 6.17681 8.66668 6C8.66668 5.82319 8.59644 5.65362 8.47141 5.52859C8.34639 5.40357 8.17682 5.33333 8.00001 5.33333H5.00001C4.93836 5.33552 4.87737 5.32013 4.82413 5.28897C4.7709 5.25781 4.72762 5.21215 4.69934 5.15733C4.67576 5.11443 4.66395 5.06604 4.66512 5.0171C4.66629 4.96815 4.6804 4.92039 4.70601 4.87866L7.74068 1.446C7.77247 1.40872 7.81197 1.37879 7.85646 1.35826C7.90094 1.33774 7.94935 1.32711 7.99834 1.32711C8.04733 1.32711 8.09574 1.33774 8.14023 1.35826C8.18471 1.37879 8.22422 1.40872 8.25601 1.446L11.2893 4.878C11.3151 4.91964 11.3294 4.96738 11.3307 5.01634C11.332 5.0653 11.3202 5.11372 11.2967 5.15666C11.2688 5.21098 11.2262 5.25636 11.1737 5.2876C11.1213 5.31884 11.0611 5.33469 11 5.33333H10.4213C10.293 5.3351 10.1679 5.37365 10.0608 5.44441C9.95377 5.51516 9.86926 5.61515 9.81732 5.7325C9.76538 5.84985 9.7482 5.97965 9.76782 6.10647C9.78744 6.23329 9.84304 6.35182 9.92801 6.448L11.9387 8.66666C11.9776 8.73427 11.9981 8.81094 11.9981 8.88896C11.998 8.96699 11.9774 9.04363 11.9384 9.11118C11.8993 9.17874 11.8432 9.23483 11.7756 9.27382C11.708 9.31281 11.6314 9.33334 11.5533 9.33333H11.4487C11.3219 9.33527 11.1982 9.37309 11.092 9.44242C10.9858 9.51175 10.9014 9.60975 10.8486 9.72506C10.7958 9.84038 10.7767 9.96829 10.7936 10.094C10.8105 10.2197 10.8626 10.338 10.944 10.4353L12.564 12.314C12.6268 12.4122 12.6622 12.5255 12.6664 12.6421C12.6707 12.7586 12.6436 12.8741 12.588 12.9767V12.978Z" fill="#A9A9A9"/>
</g>
</svg>
