<svg width="135" height="157" viewBox="0 0 135 157" fill="none" xmlns="http://www.w3.org/2000/svg">
<g id="Asset 2 1" clip-path="url(#clip0_4_4)">
<g id="Layer 2">
<g id="PRINT">
<g id="CUSTOM-group">
<path id="Vector" d="M132.438 68.8736C132.438 97.6244 90.6265 138.517 73.9687 153.663C72.1305 155.336 69.7315 156.264 67.2425 156.264C64.7536 156.264 62.3546 155.336 60.5164 153.663C43.8586 138.517 2.04683 97.6244 2.04683 68.8736C2.28757 51.7917 9.26232 35.4908 21.4627 23.4961C33.6631 11.5013 50.1085 4.77683 67.2425 4.77683C84.3766 4.77683 100.822 11.5013 113.022 23.4961C125.223 35.4908 132.198 51.7917 132.438 68.8736Z" fill="white"/>
<path id="Vector_2" d="M81.9758 53.3815C85.6017 53.3815 88.5411 50.4508 88.5411 46.8356C88.5411 43.2204 85.6017 40.2896 81.9758 40.2896C78.3499 40.2896 75.4105 43.2204 75.4105 46.8356C75.4105 50.4508 78.3499 53.3815 81.9758 53.3815Z" fill="#F9F29D"/>
<path id="Vector_3" d="M23.5449 87.5873L59.4479 58.1562L82.9413 75.7276L95.8143 63.3416L114.751 75.4837C113.44 82.9192 110.437 89.9562 105.974 96.0548C101.511 102.153 95.7062 107.151 89.0045 110.665C65.8329 123.051 38.7995 105.646 38.7995 105.646L23.5449 87.5873Z" fill="#0DBAA9"/>
<path id="Vector_4" d="M115.227 19.7149C108.96 13.4639 101.52 8.50522 93.3309 5.12205C85.1417 1.73889 76.3643 -0.00242615 67.5 -0.00242615C58.6357 -0.00242615 49.8583 1.73889 41.6691 5.12205C33.48 8.50522 26.0396 13.4639 19.7731 19.7149C13.4827 25.9487 8.49586 33.3654 5.10166 41.5351C1.70747 49.7048 -0.0265901 58.4649 1.15682e-05 67.3078C1.15682e-05 96.7517 41.4127 137.593 59.2162 153.778C61.474 155.851 64.4309 157.002 67.5 157.002C70.5691 157.002 73.526 155.851 75.7838 153.778C93.5873 137.593 135 96.7517 135 67.3078C135.027 58.4649 133.293 49.7048 129.898 41.5351C126.504 33.3654 121.517 25.9487 115.227 19.7149ZM72.6814 150.39C71.2614 151.671 69.4148 152.38 67.5 152.38C65.5852 152.38 63.7386 151.671 62.3186 150.39C49.6461 138.943 37.8514 126.565 27.0335 113.36C12.1651 94.6596 4.60857 79.1675 4.60857 67.3078C4.48933 58.9976 6.02796 50.7466 9.13504 43.0345C12.2421 35.3224 16.8557 28.303 22.7075 22.3844C28.5593 16.4657 35.5327 11.7658 43.2224 8.55781C50.912 5.34987 59.1644 3.69789 67.5 3.69789C75.8356 3.69789 84.088 5.34987 91.7777 8.55781C99.4673 11.7658 106.441 16.4657 112.293 22.3844C118.144 28.303 122.758 35.3224 125.865 43.0345C128.972 50.7466 130.511 58.9976 130.391 67.3078C130.391 79.1675 122.835 94.6596 107.915 113.36C97.1136 126.563 85.3362 138.941 72.6814 150.39Z" fill="#2D2D66"/>
<path id="Vector_5" d="M78.603 111.743C68.4697 114.248 57.7833 113.239 48.301 108.884C38.8187 104.529 31.105 97.0863 26.4284 87.7798L41.9663 74.9447C42.4335 74.5554 42.7273 73.9975 42.7833 73.393C42.8393 72.7885 42.6531 72.1864 42.2653 71.7183C41.8775 71.2503 41.3197 70.9543 40.7137 70.895C40.1077 70.8358 39.5028 71.0181 39.0312 71.4021L24.4589 83.4287C20.7533 73.6091 20.5427 62.8184 23.8624 52.8625C27.1821 42.9066 33.8306 34.3895 42.6953 28.7367C51.56 23.0838 62.103 20.6382 72.5599 21.809C83.0169 22.9798 92.7533 27.696 100.14 35.1684C100.573 35.5794 101.15 35.8064 101.748 35.8013C102.346 35.7962 102.918 35.5595 103.344 35.1412C103.771 34.7229 104.017 34.1558 104.032 33.5597C104.046 32.9636 103.828 32.3852 103.422 31.9468C97.5769 26.0326 90.3559 21.6507 82.4018 19.1909C74.4477 16.7311 66.0071 16.2698 57.831 17.8479C49.6549 19.426 41.9968 22.9946 35.5379 28.2363C29.0791 33.4779 24.0198 40.2301 20.8103 47.892C17.6007 55.554 16.3403 63.8881 17.1413 72.153C17.9423 80.4179 20.7797 88.3573 25.4012 95.2648C30.0228 102.172 36.285 107.834 43.6309 111.745C50.9768 115.657 59.1785 117.698 67.5064 117.686C71.6242 117.686 75.7266 117.186 79.723 116.197C80.2951 116.031 80.7803 115.65 81.0768 115.134C81.3732 114.619 81.4579 114.009 81.313 113.433C81.168 112.856 80.8048 112.358 80.2995 112.043C79.7942 111.728 79.1862 111.621 78.603 111.743Z" fill="#2D2D66"/>
<path id="Vector_6" d="M109.91 39.9046C109.568 39.4157 109.049 39.0785 108.462 38.9644C107.875 38.8503 107.266 38.9682 106.765 39.2931C106.264 39.6181 105.909 40.1246 105.775 40.7058C105.641 41.2869 105.739 41.8971 106.048 42.4075C110.873 49.8159 113.435 58.4619 113.425 67.2949C113.423 68.924 113.337 70.552 113.167 72.1722L100.758 62.2763C99.7073 61.4325 98.399 60.9723 97.0502 60.9723C95.7013 60.9723 94.393 61.4325 93.3427 62.2763L81.8728 71.877L63.5544 57.2193C62.4998 56.3832 61.1893 55.9334 59.842 55.9451C58.4947 55.9568 57.1923 56.4292 56.1524 57.2834L46.5877 65.1771C46.3322 65.3614 46.1173 65.5961 45.9565 65.8665C45.7956 66.137 45.6922 66.4375 45.6525 66.7495C45.6128 67.0614 45.6378 67.3782 45.7259 67.6801C45.814 67.982 45.9633 68.2627 46.1646 68.5048C46.3659 68.7469 46.6149 68.9452 46.8961 69.0874C47.1774 69.2296 47.485 69.3128 47.7998 69.3317C48.1146 69.3507 48.4299 69.305 48.7263 69.1975C49.0227 69.09 49.2937 68.9229 49.5227 68.7067L59.0874 60.8131C59.3147 60.634 59.5959 60.5366 59.8856 60.5366C60.1752 60.5366 60.4564 60.634 60.6837 60.8131L80.4568 76.5619L103.886 95.2371C99.5126 100.899 93.8749 105.465 87.4211 108.573C86.9524 108.8 86.5748 109.179 86.3498 109.647C86.1248 110.116 86.0657 110.647 86.1822 111.153C86.2987 111.659 86.5839 112.111 86.9913 112.435C87.3987 112.759 87.9041 112.936 88.4252 112.937C88.773 112.935 89.1161 112.857 89.4293 112.706C95.8906 109.6 101.615 105.159 106.223 99.6781C110.83 94.1969 114.215 87.8008 116.152 80.9148C118.089 74.0288 118.534 66.8107 117.458 59.7399C116.382 52.6691 113.809 45.9076 109.91 39.9046ZM106.525 91.4507L85.5545 74.765L96.2906 65.9087C96.5179 65.7296 96.7991 65.6322 97.0888 65.6322C97.3784 65.6322 97.6596 65.7296 97.8869 65.9087L112.305 77.4603C111.184 82.456 109.23 87.2285 106.525 91.579V91.4507Z" fill="#2D2D66"/>
<path id="Vector_7" d="M72.6685 46.8228C72.6686 48.646 73.211 50.4283 74.2272 51.944C75.2433 53.4598 76.6876 54.641 78.3773 55.3381C80.067 56.0353 81.9261 56.217 83.7194 55.8604C85.5126 55.5038 87.1595 54.6248 88.4517 53.3347C89.7438 52.0445 90.6231 50.4013 90.9783 48.6128C91.3334 46.8243 91.1486 44.9709 90.447 43.2872C89.7455 41.6035 88.5588 40.1651 87.0371 39.154C85.5154 38.1429 83.7272 37.6046 81.8985 37.6071C79.4494 37.6105 77.1018 38.5829 75.3712 40.3108C73.6406 42.0387 72.6685 44.3808 72.6685 46.8228ZM86.5329 46.8228C86.5329 47.7372 86.2607 48.6311 85.7509 49.3912C85.2411 50.1513 84.5166 50.7436 83.669 51.0929C82.8215 51.4423 81.889 51.533 80.9897 51.3537C80.0904 51.1743 79.2646 50.733 78.617 50.0855C77.9694 49.438 77.5291 48.6135 77.3517 47.7163C77.1744 46.8191 77.268 45.8897 77.6207 45.0456C77.9734 44.2015 78.5694 43.4807 79.3332 42.9746C80.097 42.4684 80.9943 42.1996 81.9114 42.2021C82.5194 42.2021 83.1214 42.3217 83.6829 42.5541C84.2445 42.7864 84.7545 43.127 85.1838 43.5562C85.6131 43.9855 85.9533 44.4949 86.1848 45.0555C86.4163 45.616 86.5346 46.2166 86.5329 46.8228Z" fill="#2D2D66"/>
</g>
</g>
</g>
</g>
<defs>
<clipPath id="clip0_4_4">
<rect width="135" height="157" fill="white"/>
</clipPath>
</defs>
</svg>
