<svg width="16" height="16" viewBox="0 0 16 16" fill="none" xmlns="http://www.w3.org/2000/svg">
<g id="mona-lisa-display-museum-national-culture-paris 1">
<path id="Vector" d="M2 1.25V1.75" stroke="#A9A9A9" stroke-width="0.5" stroke-linecap="round" stroke-linejoin="round"/>
<path id="Vector_2" d="M2 2.75V3.25" stroke="#A9A9A9" stroke-width="0.5" stroke-linecap="round" stroke-linejoin="round"/>
<path id="Vector_3" d="M1 2.25H1.5" stroke="#A9A9A9" stroke-width="0.5" stroke-linecap="round" stroke-linejoin="round"/>
<path id="Vector_4" d="M2.5 2.25H3" stroke="#A9A9A9" stroke-width="0.5" stroke-linecap="round" stroke-linejoin="round"/>
<path id="Vector_5" d="M14.125 7.75C14.4702 7.75 14.75 7.47018 14.75 7.125C14.75 6.77982 14.4702 6.5 14.125 6.5C13.7798 6.5 13.5 6.77982 13.5 7.125C13.5 7.47018 13.7798 7.75 14.125 7.75Z" stroke="#A9A9A9" stroke-width="0.5" stroke-linecap="round" stroke-linejoin="round"/>
<path id="Vector_6" d="M1.78773 7.4C1.78773 7.45286 1.77206 7.50453 1.7427 7.54848C1.71333 7.59243 1.67159 7.62668 1.62276 7.64691C1.57392 7.66714 1.52019 7.67243 1.46835 7.66212C1.41651 7.6518 1.36889 7.62635 1.33151 7.58898C1.29414 7.5516 1.26868 7.50398 1.25837 7.45214C1.24806 7.4003 1.25335 7.34656 1.27358 7.29773C1.29381 7.2489 1.32806 7.20716 1.37201 7.17779C1.41596 7.14843 1.46763 7.13275 1.52048 7.13275C1.59136 7.13275 1.65934 7.16091 1.70946 7.21103C1.75958 7.26115 1.78773 7.32912 1.78773 7.4Z" fill="#A9A9A9"/>
<path id="Vector_7" d="M14.0377 2.65C14.0377 2.70286 14.0221 2.75453 13.9927 2.79848C13.9633 2.84243 13.9216 2.87668 13.8728 2.89691C13.8239 2.91714 13.7702 2.92243 13.7183 2.91212C13.6665 2.9018 13.6189 2.87635 13.5815 2.83898C13.5441 2.8016 13.5187 2.75398 13.5084 2.70214C13.4981 2.6503 13.5034 2.59656 13.5236 2.54773C13.5438 2.4989 13.5781 2.45716 13.622 2.42779C13.666 2.39843 13.7176 2.38275 13.7705 2.38275C13.8414 2.38275 13.9093 2.41091 13.9595 2.46103C14.0096 2.51115 14.0377 2.57912 14.0377 2.65Z" fill="#A9A9A9"/>
<g id="Group">
<path id="Vector_8" d="M3.90271 11.0513C4.96846 13.684 11.2877 13.6828 12.3487 11.0478" stroke="#A9A9A9" stroke-width="0.5" stroke-linecap="round" stroke-linejoin="round"/>
<path id="Vector_9" d="M0.980225 12.8518C2.21972 12.5725 3.25997 11.9553 3.61722 11" stroke="#A9A9A9" stroke-width="0.5" stroke-linecap="round" stroke-linejoin="round"/>
<path id="Vector_10" d="M15.2698 12.8518C14.03 12.5725 12.99 11.9553 12.6328 11" stroke="#A9A9A9" stroke-width="0.5" stroke-linecap="round" stroke-linejoin="round"/>
<path id="Vector_11" d="M3.75 11C4.16421 11 4.5 10.6642 4.5 10.25C4.5 9.83579 4.16421 9.5 3.75 9.5C3.33579 9.5 3 9.83579 3 10.25C3 10.6642 3.33579 11 3.75 11Z" stroke="#A9A9A9" stroke-width="0.5" stroke-linecap="round" stroke-linejoin="round"/>
<path id="Vector_12" d="M3.75 11.25V15.25" stroke="#A9A9A9" stroke-width="0.5" stroke-linecap="round" stroke-linejoin="round"/>
<path id="Vector_13" d="M12.5 11C12.9142 11 13.25 10.6642 13.25 10.25C13.25 9.83579 12.9142 9.5 12.5 9.5C12.0858 9.5 11.75 9.83579 11.75 10.25C11.75 10.6642 12.0858 11 12.5 11Z" stroke="#A9A9A9" stroke-width="0.5" stroke-linecap="round" stroke-linejoin="round"/>
<path id="Vector_14" d="M12.5 11.25V15.25" stroke="#A9A9A9" stroke-width="0.5" stroke-linecap="round" stroke-linejoin="round"/>
<path id="Vector_15" d="M4.75 1.75H11.25V8.25H4.75V1.75Z" stroke="#A9A9A9" stroke-width="0.5" stroke-linecap="round" stroke-linejoin="round"/>
<path id="Vector_16" d="M5.75 2.75H10.25V7.25H5.75V2.75Z" stroke="#A9A9A9" stroke-width="0.5" stroke-linecap="round" stroke-linejoin="round"/>
<path id="Vector_17" d="M9 7.25H7V6.25C7 5.98478 7.10536 5.73043 7.29289 5.54289C7.48043 5.35536 7.73478 5.25 8 5.25C8.26522 5.25 8.51957 5.35536 8.70711 5.54289C8.89464 5.73043 9 5.98478 9 6.25V7.25Z" stroke="#A9A9A9" stroke-width="0.5" stroke-linecap="round" stroke-linejoin="round"/>
<path id="Vector_18" d="M10.25 2.75L11.25 1.75" stroke="#A9A9A9" stroke-width="0.5" stroke-linecap="round" stroke-linejoin="round"/>
<path id="Vector_19" d="M10.25 7.25L11.25 8.25" stroke="#A9A9A9" stroke-width="0.5" stroke-linecap="round" stroke-linejoin="round"/>
<path id="Vector_20" d="M4.75 1.75L5.75 2.75" stroke="#A9A9A9" stroke-width="0.5" stroke-linecap="round" stroke-linejoin="round"/>
<path id="Vector_21" d="M4.75 8.25L5.75 7.25" stroke="#A9A9A9" stroke-width="0.5" stroke-linecap="round" stroke-linejoin="round"/>
<path id="Vector_22" d="M8 5.25C7.86739 5.25 7.74021 5.19732 7.64645 5.10355C7.55268 5.00979 7.5 4.88261 7.5 4.75V4.25C7.5 4.11739 7.55268 3.99021 7.64645 3.89645C7.74021 3.80268 7.86739 3.75 8 3.75C8.13261 3.75 8.25979 3.80268 8.35355 3.89645C8.44732 3.99021 8.5 4.11739 8.5 4.25V4.75C8.5 4.88261 8.44732 5.00979 8.35355 5.10355C8.25979 5.19732 8.13261 5.25 8 5.25Z" stroke="#A9A9A9" stroke-width="0.5" stroke-linecap="round" stroke-linejoin="round"/>
<path id="Vector_23" d="M8.5 5.5L7.25 7" stroke="#A9A9A9" stroke-width="0.5" stroke-linecap="round" stroke-linejoin="round"/>
<path id="Vector_24" d="M8.5 4.5H10.25" stroke="#A9A9A9" stroke-width="0.5" stroke-linejoin="round"/>
<path id="Vector_25" d="M5.75 4.5H7.5" stroke="#A9A9A9" stroke-width="0.5" stroke-linejoin="round"/>
</g>
</g>
</svg>
