<svg width="24" height="24" viewBox="0 0 24 24" fill="none" xmlns="http://www.w3.org/2000/svg">
<g id="calender 1" clip-path="url(#clip0_17_282)">
<g id="Clip path group">
<mask id="mask0_17_282" style="mask-type:luminance" maskUnits="userSpaceOnUse" x="0" y="-1" width="24" height="24">
<g id="a">
<path id="Vector" d="M0 -1H24V23H0V-1Z" fill="white"/>
</g>
</mask>
<g mask="url(#mask0_17_282)">
<g id="Group">
<path id="Vector_2" fill-rule="evenodd" clip-rule="evenodd" d="M21 4.68283C21 3.25367 19.8973 2.09521 18.5368 2.09521C15.2552 2.09521 8.74484 2.09521 5.46316 2.09521C4.10273 2.09521 3 3.25367 3 4.68283V19.4124C3 20.8416 4.10273 22 5.46316 22H18.5368C19.8973 22 21 20.8416 21 19.4124V4.68283ZM20.0526 4.68283V19.4124C20.0526 20.2922 19.3743 21.0048 18.5368 21.0048H5.46316C4.62568 21.0048 3.94737 20.2922 3.94737 19.4124V4.68283C3.94737 3.80304 4.62568 3.09045 5.46316 3.09045H18.5368C19.3743 3.09045 20.0526 3.80304 20.0526 4.68283Z" fill="#89898A"/>
<path id="Vector_3" fill-rule="evenodd" clip-rule="evenodd" d="M3.52943 8.04774H20.4706C20.7624 8.04774 20.9995 7.81308 21.0005 7.52393C21.0005 7.23479 20.7624 7.00012 20.4706 7.00012H3.52943C3.23767 7.00012 2.99955 7.23479 3.00049 7.52393C3.00049 7.81308 3.23767 8.04774 3.52943 8.04774Z" fill="#89898A"/>
<g id="Group_2">
<path id="Vector_4" fill-rule="evenodd" clip-rule="evenodd" d="M16 0.436632V4.80171C16 5.04288 16.224 5.23822 16.5 5.23822C16.776 5.23822 17 5.04288 17 4.80171V0.436632C17 0.195462 16.776 0.00012207 16.5 0.00012207C16.224 0.00012207 16 0.195462 16 0.436632Z" fill="#89898A"/>
<path id="Vector_5" fill-rule="evenodd" clip-rule="evenodd" d="M7 0.436632V4.80171C7 5.04288 7.224 5.23822 7.5 5.23822C7.776 5.23822 8 5.04288 8 4.80171V0.436632C8 0.195462 7.776 0.00012207 7.5 0.00012207C7.224 0.00012207 7 0.195462 7 0.436632Z" fill="#89898A"/>
<path id="Vector_6" d="M8 13.6192C8.55228 13.6192 9 13.1501 9 12.5715C9 11.993 8.55228 11.5239 8 11.5239C7.44772 11.5239 7 11.993 7 12.5715C7 13.1501 7.44772 13.6192 8 13.6192Z" fill="#0DBAA9"/>
<path id="Vector_7" d="M8 17.8097C8.55228 17.8097 9 17.3406 9 16.762C9 16.1835 8.55228 15.7144 8 15.7144C7.44772 15.7144 7 16.1835 7 16.762C7 17.3406 7.44772 17.8097 8 17.8097Z" fill="#0DBAA9"/>
<path id="Vector_8" d="M12 13.6192C12.5523 13.6192 13 13.1501 13 12.5715C13 11.993 12.5523 11.5239 12 11.5239C11.4477 11.5239 11 11.993 11 12.5715C11 13.1501 11.4477 13.6192 12 13.6192Z" fill="#0DBAA9"/>
<path id="Vector_9" d="M12 17.8097C12.5523 17.8097 13 17.3406 13 16.762C13 16.1835 12.5523 15.7144 12 15.7144C11.4477 15.7144 11 16.1835 11 16.762C11 17.3406 11.4477 17.8097 12 17.8097Z" fill="#0DBAA9"/>
<path id="Vector_10" d="M16 13.6192C16.5523 13.6192 17 13.1501 17 12.5715C17 11.993 16.5523 11.5239 16 11.5239C15.4477 11.5239 15 11.993 15 12.5715C15 13.1501 15.4477 13.6192 16 13.6192Z" fill="#0DBAA9"/>
<path id="Vector_11" d="M16 17.8097C16.5523 17.8097 17 17.3406 17 16.762C17 16.1835 16.5523 15.7144 16 15.7144C15.4477 15.7144 15 16.1835 15 16.762C15 17.3406 15.4477 17.8097 16 17.8097Z" fill="#0DBAA9"/>
</g>
</g>
</g>
</g>
</g>
<defs>
<clipPath id="clip0_17_282">
<rect width="24" height="24" fill="white"/>
</clipPath>
</defs>
</svg>
