<svg width="24" height="24" viewBox="0 0 24 24" fill="none" xmlns="http://www.w3.org/2000/svg">
<g id="discovery 2" clip-path="url(#clip0_19_205)">
<g id="Clip path group">
<mask id="mask0_19_205" style="mask-type:luminance" maskUnits="userSpaceOnUse" x="0" y="0" width="24" height="24">
<g id="a">
<path id="Vector" d="M0 0H24V24H0V0Z" fill="white"/>
</g>
</mask>
<g mask="url(#mask0_19_205)">
<g id="Group">
<path id="Vector_2" fill-rule="evenodd" clip-rule="evenodd" d="M12 21.0009C16.9678 21.0009 21.0005 16.9681 21.0005 12.0003C21.0005 7.0326 16.9678 2.99982 12 2.99982C7.03222 2.99982 2.99945 7.0326 2.99945 12.0003C2.99945 16.9681 7.03222 21.0009 12 21.0009ZM12 19.9998C7.58378 19.9998 4.00056 16.4166 4.00056 12.0003C4.00056 7.58415 7.58378 4.00093 12 4.00093C16.4162 4.00093 19.9994 7.58415 19.9994 12.0003C19.9994 16.4166 16.4162 19.9998 12 19.9998Z" fill="#0DBAA9"/>
<path id="Vector_3" fill-rule="evenodd" clip-rule="evenodd" d="M15.8294 8.70488C15.8864 8.52388 15.8378 8.32734 15.7016 8.1949C15.5655 8.06245 15.3677 8.01924 15.1883 8.08121L10.1122 9.85111C9.96328 9.90246 9.8476 10.0213 9.80036 10.1716L8.17058 15.2945C8.11356 15.4755 8.16217 15.672 8.2983 15.8044C8.43443 15.9369 8.63224 15.9801 8.81161 15.9181L13.8878 14.1482C14.0367 14.0969 14.1523 13.978 14.1996 13.8277L15.8294 8.70488ZM14.5734 9.35459L13.3217 13.2855L9.42657 14.6448L10.6783 10.7138L14.5734 9.35459Z" fill="#0DBAA9"/>
</g>
</g>
</g>
</g>
<defs>
<clipPath id="clip0_19_205">
<rect width="24" height="24" fill="white"/>
</clipPath>
</defs>
</svg>
