<svg width="16" height="17" viewBox="0 0 16 17" fill="none" xmlns="http://www.w3.org/2000/svg">
<path id="Vector" d="M8.02489 12.8984C8.22163 12.8984 8.38755 12.8308 8.52266 12.6957C8.65777 12.5606 8.72503 12.3947 8.72444 12.198C8.72385 12.0012 8.656 11.8353 8.52089 11.7002C8.38578 11.5651 8.21985 11.4975 8.02311 11.4975C7.82637 11.4975 7.66044 11.5654 7.52533 11.7011C7.39022 11.8368 7.32266 12.0027 7.32266 12.1988C7.32266 12.395 7.39081 12.5609 7.52711 12.6966C7.66341 12.8323 7.82933 12.8999 8.02489 12.8993M7.56622 9.95529H8.424C8.44652 9.56892 8.51911 9.25484 8.64178 9.01307C8.76444 8.77188 9.01659 8.46373 9.39822 8.08862C9.79526 7.69218 10.0904 7.33692 10.2836 7.02284C10.4773 6.70877 10.5742 6.34551 10.5742 5.93307C10.5742 5.23262 10.3283 4.6744 9.83644 4.2584C9.34459 3.8424 8.76207 3.6344 8.08889 3.6344C7.44948 3.6344 6.90666 3.80803 6.46044 4.15529C6.01422 4.50255 5.68741 4.90196 5.48 5.35351L6.29778 5.69218C6.44 5.36862 6.64355 5.0827 6.90844 4.8344C7.17333 4.5861 7.55555 4.46166 8.05511 4.46107C8.6317 4.46107 9.05244 4.61929 9.31733 4.93573C9.5834 5.25218 9.71644 5.60003 9.71644 5.97929C9.71644 6.28744 9.63318 6.5624 9.46666 6.80418C9.30015 7.04595 9.08385 7.28951 8.81777 7.53484C8.30222 8.0101 7.96444 8.41306 7.80444 8.74373C7.64563 9.07381 7.56622 9.47766 7.56622 9.95529ZM8.00266 16.2495C6.89689 16.2495 5.85689 16.0397 4.88267 15.6202C3.90904 15.2 3.06192 14.63 2.34133 13.91C1.62074 13.19 1.05037 12.3437 0.630222 11.3713C0.210074 10.3988 0 9.35914 0 8.25218C0 7.14521 0.209778 6.10522 0.629333 5.13218C1.04889 4.15914 1.61896 3.31203 2.33955 2.59085C3.06015 1.86966 3.90637 1.29929 4.87822 0.879735C5.85007 0.46018 6.88978 0.250106 7.99733 0.249513C9.10489 0.24892 10.1449 0.458698 11.1173 0.878846C12.0898 1.29899 12.9369 1.86907 13.6587 2.58907C14.3804 3.30907 14.9508 4.15529 15.3698 5.12773C15.7887 6.10018 15.9988 7.13988 16 8.24684C16.0012 9.35381 15.7914 10.3938 15.3707 11.3668C14.9499 12.3399 14.3798 13.187 13.6604 13.9082C12.941 14.6294 12.0948 15.1997 11.1218 15.6193C10.1487 16.0388 9.10903 16.2489 8.00266 16.2495ZM8 15.3606C9.98518 15.3606 11.6667 14.6717 13.0444 13.294C14.4222 11.9162 15.1111 10.2347 15.1111 8.24951C15.1111 6.26433 14.4222 4.58284 13.0444 3.20507C11.6667 1.82729 9.98518 1.1384 8 1.1384C6.01481 1.1384 4.33333 1.82729 2.95555 3.20507C1.57778 4.58284 0.888889 6.26433 0.888889 8.24951C0.888889 10.2347 1.57778 11.9162 2.95555 13.294C4.33333 14.6717 6.01481 15.3606 8 15.3606Z" fill="#0DBAA9"/>
</svg>
